  0
SECTION
  2
HEADER
  9
$ACADVER
  1
AC1014
  9
$HANDSEED
  5
FFFF
  9
$INSUNITS
 70
     4
  9
$MEASUREMENT
 70
     1
  0
ENDSEC
  0
SECTION
  2
TABLES
  0
TABLE
  2
VPORT
  5
8
330
0
100
AcDbSymbolTable
 70
     4
  0
VPORT
  5
2E
330
8
100
AcDbSymbolTableRecord
100
AcDbViewportTableRecord
  2
*ACTIVE
 70
     0
 10
0.0
 20
0.0
 11
1.0
 21
1.0
 12
210.0
 22
148.5
 13
0.0
 23
0.0
 14
10.0
 24
10.0
 15
10.0
 25
10.0
 16
0.0
 26
0.0
 36
1.0
 17
0.0
 27
0.0
 37
0.0
 40
341.0
 41
1.24
 42
50.0
 43
0.0
 44
0.0
 50
0.0
 51
0.0
 71
     0
 72
   100
 73
     1
 74
     3
 75
     0
 76
     0
 77
     0
 78
     0
  0
ENDTAB
  0
TABLE
  2
LTYPE
  5
5
330
0
100
AcDbSymbolTable
 70
     1
  0
LTYPE
  5
14
330
5
100
AcDbSymbolTableRecord
100
AcDbLinetypeTableRecord
  2
BYBLOCK
 70
     0
  3

 72
    65
 73
     0
 40
0.0
  0
LTYPE
  5
15
330
5
100
AcDbSymbolTableRecord
100
AcDbLinetypeTableRecord
  2
BYLAYER
 70
     0
  3

 72
    65
 73
     0
 40
0.0
  0
LTYPE
  5
16
330
5
100
AcDbSymbolTableRecord
100
AcDbLinetypeTableRecord
  2
CONTINUOUS
 70
     0
  3
Solid line
 72
    65
 73
     0
 40
0.0
  0
ENDTAB
  0
TABLE
  2
LAYER
  5
2
100
AcDbSymbolTable
 70
2
  0
LAYER
  5
50
100
AcDbSymbolTableRecord
100
AcDbLayerTableRecord
  2
0
 70
0
  6
CONTINUOUS
  0
LAYER
  5
51
100
AcDbSymbolTableRecord
100
AcDbLayerTableRecord
  2
Page_1
 70
0
  6
CONTINUOUS
  0
ENDTAB
  0
TABLE
  2
STYLE
  5
3
330
0
100
AcDbSymbolTable
 70
     1
  0
STYLE
  5
11
330
3
100
AcDbSymbolTableRecord
100
AcDbTextStyleTableRecord
  2
STANDARD
 70
     0
 40
0.0
 41
1.0
 50
0.0
 71
     0
 42
2.5
  3
txt
  4

  0
ENDTAB
  0
TABLE
  2
VIEW
  5
6
330
0
100
AcDbSymbolTable
 70
     0
  0
ENDTAB
  0
TABLE
  2
UCS
  5
7
330
0
100
AcDbSymbolTable
 70
     0
  0
ENDTAB
  0
TABLE
  2
APPID
  5
9
330
0
100
AcDbSymbolTable
 70
     2
  0
APPID
  5
12
330
9
100
AcDbSymbolTableRecord
100
AcDbRegAppTableRecord
  2
ACAD
 70
     0
  0
ENDTAB
  0
TABLE
  2
DIMSTYLE
  5
A
330
0
100
AcDbSymbolTable
 70
     1
  0
DIMSTYLE
105
27
330
A
100
AcDbSymbolTableRecord
100
AcDbDimStyleTableRecord
  2
ISO-25
 70
     0
  3

  4

  5

  6

  7

 40
1.0
 41
2.5
 42
0.625
 43
3.75
 44
1.25
 45
0.0
 46
0.0
 47
0.0
 48
0.0
140
2.5
141
2.5
142
0.0
143
0.03937007874016
144
1.0
145
0.0
146
1.0
147
0.625
 71
     0
 72
     0
 73
     0
 74
     0
 75
     0
 76
     0
 77
     1
 78
     8
170
     0
171
     3
172
     1
173
     0
174
     0
175
     0
176
     0
177
     0
178
     0
270
     2
271
     2
272
     2
273
     2
274
     3
340
11
275
     0
280
     0
281
     0
282
     0
283
     0
284
     8
285
     0
286
     0
287
     3
288
     0
  0
ENDTAB
  0
TABLE
  2
BLOCK_RECORD
  5
1
330
0
100
AcDbSymbolTable
 70
     1
  0
BLOCK_RECORD
  5
1F
330
1
100
AcDbSymbolTableRecord
100
AcDbBlockTableRecord
  2
*MODEL_SPACE
  0
BLOCK_RECORD
  5
1B
330
1
100
AcDbSymbolTableRecord
100
AcDbBlockTableRecord
  2
*PAPER_SPACE
  0
ENDTAB
  0
ENDSEC
  0
SECTION
  2
BLOCKS
  0
BLOCK
  5
20
330
1F
100
AcDbEntity
  8
0
100
AcDbBlockBegin
  2
*MODEL_SPACE
 70
     0
 10
0.0
 20
0.0
 30
0.0
  3
*MODEL_SPACE
  1

  0
ENDBLK
  5
21
330
1F
100
AcDbEntity
  8
0
100
AcDbBlockEnd
  0
BLOCK
  5
1C
330
1B
100
AcDbEntity
 67
     1
  8
0
100
AcDbBlockBegin
  2
*PAPER_SPACE
  1

  0
ENDBLK
  5
1D
330
1B
100
AcDbEntity
 67
     1
  8
0
100
AcDbBlockEnd
  0
ENDSEC
  0
SECTION
  2
ENTITIES
  0
LWPOLYLINE
  5
100
100
AcDbEntity
  8
Page_1
 62
7
100
AcDbPolyline
 90
4
 70
1
 10
130.394794
 20
407.617501
 30
0.0
 10
130.394794
 20
1481.008831
 30
0.0
 10
625.515423
 20
1481.008831
 30
0.0
 10
625.515423
 20
407.617501
 30
0.0
  0
LWPOLYLINE
  5
101
100
AcDbEntity
  8
Page_1
 62
7
100
AcDbPolyline
 90
4
 70
1
 10
134.174331
 20
411.397038
 30
0.0
 10
134.174331
 20
1477.229267
 30
0.0
 10
621.735872
 20
1477.229267
 30
0.0
 10
621.735872
 20
411.397038
 30
0.0
  0
LWPOLYLINE
  5
102
100
AcDbEntity
  8
Page_1
 62
7
100
AcDbPolyline
 90
4
 70
1
 10
179.528885
 20
458.641347
 30
0.0
 10
179.528885
 20
475.649384
 30
0.0
 10
368.507212
 20
475.649384
 30
0.0
 10
368.507212
 20
458.641347
 30
0.0
  0
LWPOLYLINE
  5
103
100
AcDbEntity
  8
Page_1
 62
7
100
AcDbPolyline
 90
4
 70
1
 10
383.624414
 20
458.641347
 30
0.0
 10
383.624414
 20
475.649384
 30
0.0
 10
572.602755
 20
475.649384
 30
0.0
 10
572.602755
 20
458.641347
 30
0.0
  0
LWPOLYLINE
  5
104
100
AcDbEntity
  8
Page_1
 62
7
100
AcDbPolyline
 90
4
 70
1
 10
179.528885
 20
516.846361
 30
0.0
 10
179.528885
 20
533.854399
 30
0.0
 10
368.507212
 20
533.854399
 30
0.0
 10
368.507212
 20
516.846361
 30
0.0
  0
LWPOLYLINE
  5
105
100
AcDbEntity
  8
Page_1
 62
7
100
AcDbPolyline
 90
4
 70
1
 10
383.624414
 20
516.846361
 30
0.0
 10
383.624414
 20
533.854399
 30
0.0
 10
572.602755
 20
533.854399
 30
0.0
 10
572.602755
 20
516.846361
 30
0.0
  0
LWPOLYLINE
  5
106
100
AcDbEntity
  8
Page_1
 62
7
100
AcDbPolyline
 90
4
 70
1
 10
179.528885
 20
575.051349
 30
0.0
 10
179.528885
 20
592.059387
 30
0.0
 10
368.507212
 20
592.059387
 30
0.0
 10
368.507212
 20
575.051349
 30
0.0
  0
LWPOLYLINE
  5
107
100
AcDbEntity
  8
Page_1
 62
7
100
AcDbPolyline
 90
4
 70
1
 10
383.624414
 20
575.051349
 30
0.0
 10
383.624414
 20
592.059387
 30
0.0
 10
572.602755
 20
592.059387
 30
0.0
 10
572.602755
 20
575.051349
 30
0.0
  0
LWPOLYLINE
  5
108
100
AcDbEntity
  8
Page_1
 62
7
100
AcDbPolyline
 90
4
 70
1
 10
179.528885
 20
633.256350
 30
0.0
 10
179.528885
 20
650.264388
 30
0.0
 10
368.507212
 20
650.264388
 30
0.0
 10
368.507212
 20
633.256350
 30
0.0
  0
LWPOLYLINE
  5
109
100
AcDbEntity
  8
Page_1
 62
7
100
AcDbPolyline
 90
4
 70
1
 10
383.624414
 20
633.256350
 30
0.0
 10
383.624414
 20
650.264388
 30
0.0
 10
572.602755
 20
650.264388
 30
0.0
 10
572.602755
 20
633.256350
 30
0.0
  0
LWPOLYLINE
  5
10a
100
AcDbEntity
  8
Page_1
 62
7
100
AcDbPolyline
 90
4
 70
1
 10
179.528885
 20
691.461365
 30
0.0
 10
179.528885
 20
708.469389
 30
0.0
 10
368.507212
 20
708.469389
 30
0.0
 10
368.507212
 20
691.461365
 30
0.0
  0
LWPOLYLINE
  5
10b
100
AcDbEntity
  8
Page_1
 62
7
100
AcDbPolyline
 90
4
 70
1
 10
383.624414
 20
691.461365
 30
0.0
 10
383.624414
 20
708.469389
 30
0.0
 10
572.602755
 20
708.469389
 30
0.0
 10
572.602755
 20
691.461365
 30
0.0
  0
LWPOLYLINE
  5
10c
100
AcDbEntity
  8
Page_1
 62
7
100
AcDbPolyline
 90
4
 70
1
 10
179.528885
 20
749.666353
 30
0.0
 10
179.528885
 20
766.674390
 30
0.0
 10
368.507212
 20
766.674390
 30
0.0
 10
368.507212
 20
749.666353
 30
0.0
  0
LWPOLYLINE
  5
10d
100
AcDbEntity
  8
Page_1
 62
7
100
AcDbPolyline
 90
4
 70
1
 10
383.624414
 20
749.666353
 30
0.0
 10
383.624414
 20
766.674390
 30
0.0
 10
572.602755
 20
766.674390
 30
0.0
 10
572.602755
 20
749.666353
 30
0.0
  0
LWPOLYLINE
  5
10e
100
AcDbEntity
  8
Page_1
 62
7
100
AcDbPolyline
 90
4
 70
1
 10
179.528885
 20
807.871354
 30
0.0
 10
179.528885
 20
824.879378
 30
0.0
 10
368.507212
 20
824.879378
 30
0.0
 10
368.507212
 20
807.871354
 30
0.0
  0
LWPOLYLINE
  5
10f
100
AcDbEntity
  8
Page_1
 62
7
100
AcDbPolyline
 90
4
 70
1
 10
383.624414
 20
807.871354
 30
0.0
 10
383.624414
 20
824.879378
 30
0.0
 10
572.602755
 20
824.879378
 30
0.0
 10
572.602755
 20
807.871354
 30
0.0
  0
LWPOLYLINE
  5
110
100
AcDbEntity
  8
Page_1
 62
7
100
AcDbPolyline
 90
4
 70
1
 10
179.528885
 20
866.076368
 30
0.0
 10
179.528885
 20
883.084392
 30
0.0
 10
368.507212
 20
883.084392
 30
0.0
 10
368.507212
 20
866.076368
 30
0.0
  0
LWPOLYLINE
  5
111
100
AcDbEntity
  8
Page_1
 62
7
100
AcDbPolyline
 90
4
 70
1
 10
383.624414
 20
866.076368
 30
0.0
 10
383.624414
 20
883.084392
 30
0.0
 10
572.602755
 20
883.084392
 30
0.0
 10
572.602755
 20
866.076368
 30
0.0
  0
LWPOLYLINE
  5
112
100
AcDbEntity
  8
Page_1
 62
7
100
AcDbPolyline
 90
4
 70
1
 10
179.528885
 20
924.281356
 30
0.0
 10
179.528885
 20
941.289393
 30
0.0
 10
368.507212
 20
941.289393
 30
0.0
 10
368.507212
 20
924.281356
 30
0.0
  0
LWPOLYLINE
  5
113
100
AcDbEntity
  8
Page_1
 62
7
100
AcDbPolyline
 90
4
 70
1
 10
383.624414
 20
924.281356
 30
0.0
 10
383.624414
 20
941.289393
 30
0.0
 10
572.602755
 20
941.289393
 30
0.0
 10
572.602755
 20
924.281356
 30
0.0
  0
LWPOLYLINE
  5
114
100
AcDbEntity
  8
Page_1
 62
7
100
AcDbPolyline
 90
4
 70
1
 10
179.528885
 20
982.486344
 30
0.0
 10
179.528885
 20
999.494381
 30
0.0
 10
368.507212
 20
999.494381
 30
0.0
 10
368.507212
 20
982.486344
 30
0.0
  0
LWPOLYLINE
  5
115
100
AcDbEntity
  8
Page_1
 62
7
100
AcDbPolyline
 90
4
 70
1
 10
383.624414
 20
982.486344
 30
0.0
 10
383.624414
 20
999.494381
 30
0.0
 10
572.602755
 20
999.494381
 30
0.0
 10
572.602755
 20
982.486344
 30
0.0
  0
LWPOLYLINE
  5
116
100
AcDbEntity
  8
Page_1
 62
7
100
AcDbPolyline
 90
4
 70
1
 10
179.528885
 20
1040.691358
 30
0.0
 10
179.528885
 20
1057.699396
 30
0.0
 10
368.507212
 20
1057.699396
 30
0.0
 10
368.507212
 20
1040.691358
 30
0.0
  0
LWPOLYLINE
  5
117
100
AcDbEntity
  8
Page_1
 62
7
100
AcDbPolyline
 90
4
 70
1
 10
383.624414
 20
1040.691358
 30
0.0
 10
383.624414
 20
1057.699396
 30
0.0
 10
572.602755
 20
1057.699396
 30
0.0
 10
572.602755
 20
1040.691358
 30
0.0
  0
LWPOLYLINE
  5
118
100
AcDbEntity
  8
Page_1
 62
7
100
AcDbPolyline
 90
4
 70
1
 10
179.528885
 20
1098.896359
 30
0.0
 10
179.528885
 20
1115.904397
 30
0.0
 10
368.507212
 20
1115.904397
 30
0.0
 10
368.507212
 20
1098.896359
 30
0.0
  0
LWPOLYLINE
  5
119
100
AcDbEntity
  8
Page_1
 62
7
100
AcDbPolyline
 90
4
 70
1
 10
383.624414
 20
1098.896359
 30
0.0
 10
383.624414
 20
1115.904397
 30
0.0
 10
572.602755
 20
1115.904397
 30
0.0
 10
572.602755
 20
1098.896359
 30
0.0
  0
LWPOLYLINE
  5
11a
100
AcDbEntity
  8
Page_1
 62
7
100
AcDbPolyline
 90
4
 70
1
 10
179.528885
 20
1157.101347
 30
0.0
 10
179.528885
 20
1174.109385
 30
0.0
 10
368.507212
 20
1174.109385
 30
0.0
 10
368.507212
 20
1157.101347
 30
0.0
  0
LWPOLYLINE
  5
11b
100
AcDbEntity
  8
Page_1
 62
7
100
AcDbPolyline
 90
4
 70
1
 10
383.624414
 20
1157.101347
 30
0.0
 10
383.624414
 20
1174.109385
 30
0.0
 10
572.602755
 20
1174.109385
 30
0.0
 10
572.602755
 20
1157.101347
 30
0.0
  0
LWPOLYLINE
  5
11c
100
AcDbEntity
  8
Page_1
 62
7
100
AcDbPolyline
 90
4
 70
1
 10
179.528885
 20
1215.306362
 30
0.0
 10
179.528885
 20
1232.314399
 30
0.0
 10
368.507212
 20
1232.314399
 30
0.0
 10
368.507212
 20
1215.306362
 30
0.0
  0
LWPOLYLINE
  5
11d
100
AcDbEntity
  8
Page_1
 62
7
100
AcDbPolyline
 90
4
 70
1
 10
383.624414
 20
1215.306362
 30
0.0
 10
383.624414
 20
1232.314399
 30
0.0
 10
572.602755
 20
1232.314399
 30
0.0
 10
572.602755
 20
1215.306362
 30
0.0
  0
LWPOLYLINE
  5
11e
100
AcDbEntity
  8
Page_1
 62
7
100
AcDbPolyline
 90
4
 70
1
 10
179.528885
 20
1273.511363
 30
0.0
 10
179.528885
 20
1290.519374
 30
0.0
 10
368.507212
 20
1290.519374
 30
0.0
 10
368.507212
 20
1273.511363
 30
0.0
  0
LWPOLYLINE
  5
11f
100
AcDbEntity
  8
Page_1
 62
7
100
AcDbPolyline
 90
4
 70
1
 10
383.624414
 20
1273.511363
 30
0.0
 10
383.624414
 20
1290.519374
 30
0.0
 10
572.602755
 20
1290.519374
 30
0.0
 10
572.602755
 20
1273.511363
 30
0.0
  0
LWPOLYLINE
  5
120
100
AcDbEntity
  8
Page_1
 62
7
100
AcDbPolyline
 90
4
 70
1
 10
179.528885
 20
1331.716351
 30
0.0
 10
179.528885
 20
1348.724388
 30
0.0
 10
368.507212
 20
1348.724388
 30
0.0
 10
368.507212
 20
1331.716351
 30
0.0
  0
LWPOLYLINE
  5
121
100
AcDbEntity
  8
Page_1
 62
7
100
AcDbPolyline
 90
4
 70
1
 10
383.624414
 20
1331.716351
 30
0.0
 10
383.624414
 20
1348.724388
 30
0.0
 10
572.602755
 20
1348.724388
 30
0.0
 10
572.602755
 20
1331.716351
 30
0.0
  0
LWPOLYLINE
  5
122
100
AcDbEntity
  8
Page_1
 62
7
100
AcDbPolyline
 90
4
 70
1
 10
179.528885
 20
1389.921365
 30
0.0
 10
179.528885
 20
1406.929403
 30
0.0
 10
368.507212
 20
1406.929403
 30
0.0
 10
368.507212
 20
1389.921365
 30
0.0
  0
LWPOLYLINE
  5
123
100
AcDbEntity
  8
Page_1
 62
7
100
AcDbPolyline
 90
4
 70
1
 10
383.624414
 20
1389.921365
 30
0.0
 10
383.624414
 20
1406.929403
 30
0.0
 10
572.602755
 20
1406.929403
 30
0.0
 10
572.602755
 20
1389.921365
 30
0.0
  0
LWPOLYLINE
  5
124
100
AcDbEntity
  8
Page_1
 62
7
100
AcDbPolyline
 90
4
 70
1
 10
179.528885
 20
1448.126353
 30
0.0
 10
179.528885
 20
1465.134377
 30
0.0
 10
368.507212
 20
1465.134377
 30
0.0
 10
368.507212
 20
1448.126353
 30
0.0
  0
LWPOLYLINE
  5
125
100
AcDbEntity
  8
Page_1
 62
7
100
AcDbPolyline
 90
4
 70
1
 10
383.624414
 20
1448.126353
 30
0.0
 10
383.624414
 20
1465.134377
 30
0.0
 10
572.602755
 20
1465.134377
 30
0.0
 10
572.602755
 20
1448.126353
 30
0.0
  0
LWPOLYLINE
  5
126
100
AcDbEntity
  8
Page_1
 62
7
100
AcDbPolyline
 90
4
 70
1
 10
194.648540
 20
433.834769
 30
0.0
 10
151.887647
 20
476.595689
 30
0.0
 10
141.731926
 20
466.439967
 30
0.0
 10
184.492845
 20
423.679047
 30
0.0
  0
LWPOLYLINE
  5
127
100
AcDbEntity
  8
Page_1
 62
7
100
AcDbPolyline
 90
4
 70
1
 10
600.243006
 20
476.595689
 30
0.0
 10
557.482086
 20
433.834769
 30
0.0
 10
567.637808
 20
423.679047
 30
0.0
 10
610.398727
 20
466.439967
 30
0.0
  0
LWPOLYLINE
  5
128
100
AcDbEntity
  8
Page_1
 62
7
100
AcDbPolyline
 90
4
 70
1
 10
194.648540
 20
492.039783
 30
0.0
 10
151.887647
 20
534.800676
 30
0.0
 10
141.731926
 20
524.644982
 30
0.0
 10
184.492845
 20
481.884062
 30
0.0
  0
LWPOLYLINE
  5
129
100
AcDbEntity
  8
Page_1
 62
7
100
AcDbPolyline
 90
4
 70
1
 10
600.243006
 20
534.800676
 30
0.0
 10
557.482086
 20
492.039783
 30
0.0
 10
567.637808
 20
481.884062
 30
0.0
 10
610.398727
 20
524.644982
 30
0.0
  0
LWPOLYLINE
  5
12a
100
AcDbEntity
  8
Page_1
 62
7
100
AcDbPolyline
 90
4
 70
1
 10
194.648540
 20
550.244771
 30
0.0
 10
151.887647
 20
593.005691
 30
0.0
 10
141.731926
 20
582.849983
 30
0.0
 10
184.492845
 20
540.089076
 30
0.0
  0
LWPOLYLINE
  5
12b
100
AcDbEntity
  8
Page_1
 62
7
100
AcDbPolyline
 90
4
 70
1
 10
600.243006
 20
593.005691
 30
0.0
 10
557.482086
 20
550.244771
 30
0.0
 10
567.637808
 20
540.089076
 30
0.0
 10
610.398727
 20
582.849983
 30
0.0
  0
LWPOLYLINE
  5
12c
100
AcDbEntity
  8
Page_1
 62
7
100
AcDbPolyline
 90
4
 70
1
 10
194.648540
 20
608.449772
 30
0.0
 10
151.887647
 20
651.210665
 30
0.0
 10
141.731926
 20
641.054971
 30
0.0
 10
184.492845
 20
598.294051
 30
0.0
  0
LWPOLYLINE
  5
12d
100
AcDbEntity
  8
Page_1
 62
7
100
AcDbPolyline
 90
4
 70
1
 10
600.243006
 20
651.210665
 30
0.0
 10
557.482086
 20
608.449772
 30
0.0
 10
567.637808
 20
598.294051
 30
0.0
 10
610.398727
 20
641.054971
 30
0.0
  0
LWPOLYLINE
  5
12e
100
AcDbEntity
  8
Page_1
 62
7
100
AcDbPolyline
 90
4
 70
1
 10
194.648540
 20
666.654787
 30
0.0
 10
151.887647
 20
709.415680
 30
0.0
 10
141.731926
 20
699.259985
 30
0.0
 10
184.492845
 20
656.499065
 30
0.0
  0
LWPOLYLINE
  5
12f
100
AcDbEntity
  8
Page_1
 62
7
100
AcDbPolyline
 90
4
 70
1
 10
600.243006
 20
709.415680
 30
0.0
 10
557.482086
 20
666.654787
 30
0.0
 10
567.637808
 20
656.499065
 30
0.0
 10
610.398727
 20
699.259985
 30
0.0
  0
LWPOLYLINE
  5
130
100
AcDbEntity
  8
Page_1
 62
7
100
AcDbPolyline
 90
4
 70
1
 10
194.648540
 20
724.859775
 30
0.0
 10
151.887647
 20
767.620694
 30
0.0
 10
141.731926
 20
757.464973
 30
0.0
 10
184.492845
 20
714.704080
 30
0.0
  0
LWPOLYLINE
  5
131
100
AcDbEntity
  8
Page_1
 62
7
100
AcDbPolyline
 90
4
 70
1
 10
600.243006
 20
767.620694
 30
0.0
 10
557.482086
 20
724.859775
 30
0.0
 10
567.637808
 20
714.704080
 30
0.0
 10
610.398727
 20
757.464973
 30
0.0
  0
LWPOLYLINE
  5
132
100
AcDbEntity
  8
Page_1
 62
7
100
AcDbPolyline
 90
4
 70
1
 10
194.648540
 20
783.064776
 30
0.0
 10
151.887647
 20
825.825669
 30
0.0
 10
141.731926
 20
815.669974
 30
0.0
 10
184.492845
 20
772.909054
 30
0.0
  0
LWPOLYLINE
  5
133
100
AcDbEntity
  8
Page_1
 62
7
100
AcDbPolyline
 90
4
 70
1
 10
600.243006
 20
825.825669
 30
0.0
 10
557.482086
 20
783.064776
 30
0.0
 10
567.637808
 20
772.909054
 30
0.0
 10
610.398727
 20
815.669974
 30
0.0
  0
LWPOLYLINE
  5
134
100
AcDbEntity
  8
Page_1
 62
7
100
AcDbPolyline
 90
4
 70
1
 10
194.648540
 20
841.269777
 30
0.0
 10
151.887647
 20
884.030683
 30
0.0
 10
141.731926
 20
873.874989
 30
0.0
 10
184.492845
 20
831.114069
 30
0.0
  0
LWPOLYLINE
  5
135
100
AcDbEntity
  8
Page_1
 62
7
100
AcDbPolyline
 90
4
 70
1
 10
600.243006
 20
884.030683
 30
0.0
 10
557.482086
 20
841.269777
 30
0.0
 10
567.637808
 20
831.114069
 30
0.0
 10
610.398727
 20
873.874989
 30
0.0
  0
LWPOLYLINE
  5
136
100
AcDbEntity
  8
Page_1
 62
7
100
AcDbPolyline
 90
4
 70
1
 10
194.648540
 20
899.474778
 30
0.0
 10
151.887647
 20
942.235698
 30
0.0
 10
141.731926
 20
932.079976
 30
0.0
 10
184.492845
 20
889.319083
 30
0.0
  0
LWPOLYLINE
  5
137
100
AcDbEntity
  8
Page_1
 62
7
100
AcDbPolyline
 90
4
 70
1
 10
600.243006
 20
942.235698
 30
0.0
 10
557.482086
 20
899.474778
 30
0.0
 10
567.637808
 20
889.319083
 30
0.0
 10
610.398727
 20
932.079976
 30
0.0
  0
LWPOLYLINE
  5
138
100
AcDbEntity
  8
Page_1
 62
7
100
AcDbPolyline
 90
4
 70
1
 10
194.648540
 20
957.679766
 30
0.0
 10
151.887647
 20
1000.440672
 30
0.0
 10
141.731926
 20
990.284978
 30
0.0
 10
184.492845
 20
947.524058
 30
0.0
  0
LWPOLYLINE
  5
139
100
AcDbEntity
  8
Page_1
 62
7
100
AcDbPolyline
 90
4
 70
1
 10
600.243006
 20
1000.440672
 30
0.0
 10
557.482086
 20
957.679766
 30
0.0
 10
567.637808
 20
947.524058
 30
0.0
 10
610.398727
 20
990.284978
 30
0.0
  0
LWPOLYLINE
  5
13a
100
AcDbEntity
  8
Page_1
 62
7
100
AcDbPolyline
 90
4
 70
1
 10
194.648540
 20
1015.884780
 30
0.0
 10
151.887647
 20
1058.645687
 30
0.0
 10
141.731926
 20
1048.489979
 30
0.0
 10
184.492845
 20
1005.729072
 30
0.0
  0
LWPOLYLINE
  5
13b
100
AcDbEntity
  8
Page_1
 62
7
100
AcDbPolyline
 90
4
 70
1
 10
600.243006
 20
1058.645687
 30
0.0
 10
557.482086
 20
1015.884780
 30
0.0
 10
567.637808
 20
1005.729072
 30
0.0
 10
610.398727
 20
1048.489979
 30
0.0
  0
LWPOLYLINE
  5
13c
100
AcDbEntity
  8
Page_1
 62
7
100
AcDbPolyline
 90
4
 70
1
 10
194.648540
 20
1074.089781
 30
0.0
 10
151.887647
 20
1116.850701
 30
0.0
 10
141.731926
 20
1106.694980
 30
0.0
 10
184.492845
 20
1063.934074
 30
0.0
  0
LWPOLYLINE
  5
13d
100
AcDbEntity
  8
Page_1
 62
7
100
AcDbPolyline
 90
4
 70
1
 10
600.243006
 20
1116.850701
 30
0.0
 10
557.482086
 20
1074.089781
 30
0.0
 10
567.637808
 20
1063.934074
 30
0.0
 10
610.398727
 20
1106.694980
 30
0.0
  0
LWPOLYLINE
  5
13e
100
AcDbEntity
  8
Page_1
 62
7
100
AcDbPolyline
 90
4
 70
1
 10
194.648540
 20
1132.294769
 30
0.0
 10
151.887647
 20
1175.055662
 30
0.0
 10
141.731926
 20
1164.899981
 30
0.0
 10
184.492845
 20
1122.139061
 30
0.0
  0
LWPOLYLINE
  5
13f
100
AcDbEntity
  8
Page_1
 62
7
100
AcDbPolyline
 90
4
 70
1
 10
600.243006
 20
1175.055662
 30
0.0
 10
557.482086
 20
1132.294769
 30
0.0
 10
567.637808
 20
1122.139061
 30
0.0
 10
610.398727
 20
1164.899981
 30
0.0
  0
LWPOLYLINE
  5
140
100
AcDbEntity
  8
Page_1
 62
7
100
AcDbPolyline
 90
4
 70
1
 10
194.648540
 20
1190.499784
 30
0.0
 10
151.887647
 20
1233.260690
 30
0.0
 10
141.731926
 20
1223.104969
 30
0.0
 10
184.492845
 20
1180.344076
 30
0.0
  0
LWPOLYLINE
  5
141
100
AcDbEntity
  8
Page_1
 62
7
100
AcDbPolyline
 90
4
 70
1
 10
600.243006
 20
1233.260690
 30
0.0
 10
557.482086
 20
1190.499784
 30
0.0
 10
567.637808
 20
1180.344076
 30
0.0
 10
610.398727
 20
1223.104969
 30
0.0
  0
LWPOLYLINE
  5
142
100
AcDbEntity
  8
Page_1
 62
7
100
AcDbPolyline
 90
4
 70
1
 10
194.648540
 20
1248.704785
 30
0.0
 10
151.887647
 20
1291.465705
 30
0.0
 10
141.731926
 20
1281.309983
 30
0.0
 10
184.492845
 20
1238.549090
 30
0.0
  0
LWPOLYLINE
  5
143
100
AcDbEntity
  8
Page_1
 62
7
100
AcDbPolyline
 90
4
 70
1
 10
600.243006
 20
1291.465705
 30
0.0
 10
557.482086
 20
1248.704785
 30
0.0
 10
567.637808
 20
1238.549090
 30
0.0
 10
610.398727
 20
1281.309983
 30
0.0
  0
LWPOLYLINE
  5
144
100
AcDbEntity
  8
Page_1
 62
7
100
AcDbPolyline
 90
4
 70
1
 10
194.648540
 20
1306.909773
 30
0.0
 10
151.887647
 20
1349.670679
 30
0.0
 10
141.731926
 20
1339.514985
 30
0.0
 10
184.492845
 20
1296.754051
 30
0.0
  0
LWPOLYLINE
  5
145
100
AcDbEntity
  8
Page_1
 62
7
100
AcDbPolyline
 90
4
 70
1
 10
600.243006
 20
1349.670679
 30
0.0
 10
557.482086
 20
1306.909773
 30
0.0
 10
567.637808
 20
1296.754051
 30
0.0
 10
610.398727
 20
1339.514985
 30
0.0
  0
LWPOLYLINE
  5
146
100
AcDbEntity
  8
Page_1
 62
7
100
AcDbPolyline
 90
4
 70
1
 10
194.648540
 20
1365.114761
 30
0.0
 10
151.887647
 20
1407.875694
 30
0.0
 10
141.731926
 20
1397.719972
 30
0.0
 10
184.492845
 20
1354.959079
 30
0.0
  0
LWPOLYLINE
  5
147
100
AcDbEntity
  8
Page_1
 62
7
100
AcDbPolyline
 90
4
 70
1
 10
600.243006
 20
1407.875694
 30
0.0
 10
557.482086
 20
1365.114761
 30
0.0
 10
567.637808
 20
1354.959079
 30
0.0
 10
610.398727
 20
1397.719972
 30
0.0
  0
LWPOLYLINE
  5
148
100
AcDbEntity
  8
Page_1
 62
7
100
AcDbPolyline
 90
4
 70
1
 10
194.648540
 20
1423.319775
 30
0.0
 10
151.887647
 20
1466.080695
 30
0.0
 10
141.731926
 20
1455.924987
 30
0.0
 10
184.492845
 20
1413.164080
 30
0.0
  0
LWPOLYLINE
  5
149
100
AcDbEntity
  8
Page_1
 62
7
100
AcDbPolyline
 90
4
 70
1
 10
600.243006
 20
1466.080695
 30
0.0
 10
557.482086
 20
1423.319775
 30
0.0
 10
567.637808
 20
1413.164080
 30
0.0
 10
610.398727
 20
1455.924987
 30
0.0
  0
LWPOLYLINE
  5
14a
100
AcDbEntity
  8
Page_1
 62
7
100
AcDbPolyline
 90
4
 70
1
 10
226.772433
 20
781.220380
 30
0.0
 10
529.137770
 20
781.220380
 30
0.0
 10
529.137770
 20
790.075198
 30
0.0
 10
226.772433
 20
790.075198
 30
0.0
  0
LWPOLYLINE
  5
14b
100
AcDbEntity
  8
Page_1
 62
7
100
AcDbPolyline
 90
4
 70
1
 10
226.772433
 20
1130.450374
 30
0.0
 10
529.137770
 20
1130.450374
 30
0.0
 10
529.137770
 20
1139.305192
 30
0.0
 10
226.772433
 20
1139.305192
 30
0.0
  0
ENDSEC
  0
SECTION
  2
OBJECTS
  0
DICTIONARY
  5
C
330
0
100
AcDbDictionary
  3
ACAD_GROUP
350
D
  3
ACAD_MLINESTYLE
350
17
  0
DICTIONARY
  5
D
330
C
100
AcDbDictionary
  0
DICTIONARY
  5
1A
330
C
100
AcDbDictionary
  0
DICTIONARY
  5
17
330
C
100
AcDbDictionary
  3
STANDARD
350
18
  0
DICTIONARY
  5
19
330
C
100
AcDbDictionary
  0
ENDSEC
  0
EOF
